<svg xmlns="http://www.w3.org/2000/svg" xmlns:xlink="http://www.w3.org/1999/xlink" viewBox="0 0 75.48 75.48"><defs><style>.cls-1{fill:url(#linear-gradient);}</style><linearGradient id="linear-gradient" x1="11.05" y1="64.43" x2="64.4" y2="11.09" gradientUnits="userSpaceOnUse"><stop offset="0" stop-color="#6415ff"/><stop offset="0.05" stop-color="#5c16e8"/><stop offset="0.18" stop-color="#4a17b7"/><stop offset="0.31" stop-color="#3b198d"/><stop offset="0.44" stop-color="#2e1a6b"/><stop offset="0.58" stop-color="#241b50"/><stop offset="0.71" stop-color="#1d1b3d"/><stop offset="0.85" stop-color="#191c32"/><stop offset="1" stop-color="#181c2e"/></linearGradient></defs><title>avatarAsset 6</title><g id="Layer_2" data-name="Layer 2"><g id="Layer_1-2" data-name="Layer 1"><path class="cls-1" d="M37.74,0A37.74,37.74,0,1,0,75.48,37.74,37.74,37.74,0,0,0,37.74,0Zm0,11.32A11.33,11.33,0,1,1,26.42,22.64,11.32,11.32,0,0,1,37.74,11.32Zm0,54.51A27.47,27.47,0,0,1,15.1,53.74C15.28,46.2,30.19,42,37.74,42S60.2,46.2,60.39,53.74A27.55,27.55,0,0,1,37.74,65.83Z"/></g></g></svg>