<svg xmlns="http://www.w3.org/2000/svg" viewBox="0 0 106 106"><defs><style>.cls-1{fill:#fff;}.cls-2{fill:#3f3d56;stroke:#6415ff;stroke-miterlimit:10;stroke-width:3px;}.cls-3{fill:#f8f8f8;}</style></defs><title>avatarJabakV3Asset 6</title><g id="Layer_2" data-name="Layer 2"><g id="Layer_1-2" data-name="Layer 1"><circle class="cls-1" cx="53" cy="53" r="53"/><circle class="cls-2" cx="53.13" cy="52.94" r="48.53"/><path class="cls-3" d="M72.94,53.75l-6.53,8.17-8.7-8-5.62,4.36L66.23,70.8s6-6,8.35-11.24A30,30,0,0,0,72.94,53.75Z"/><path class="cls-3" d="M72,51.76S69.86,46,63.69,37.61l-4-2.18s5.63,7.44,8.17,12.7L63,52.3l2.54,6.9S70,55.39,72,51.76Z"/><path class="cls-3" d="M45.92,43.41l-6,19.41L59.34,77.7l5.26-4.9A172,172,0,0,0,49.73,59.92l2.9-11.79Z"/><path class="cls-3" d="M58.25,34.89a69.28,69.28,0,0,0-17.59-3.63l-1.82,3.45s10.83.66,17.36,2.6a88.33,88.33,0,0,1,5.08,8.52l5.14,1.56A92.48,92.48,0,0,0,58.25,34.89Z"/><path class="cls-3" d="M56,38.52l-.63,4.76s-10.16-1.5-11.61-1.41l-6.35,19.2L30,55.87s5.65-14.36,8-19.62A98.15,98.15,0,0,1,56,38.52Z"/></g></g></svg>