<svg xmlns="http://www.w3.org/2000/svg" viewBox="0 0 384.32 226.47"><defs><style>.cls-1{fill:#fff;}.cls-2{fill:#f8f8f8;}.cls-3{fill:#5f29e2;}</style></defs><title>LogoAsset 5</title><g id="Layer_2" data-name="Layer 2"><g id="Layer_1-2" data-name="Layer 1"><path class="cls-1" d="M54.33,168.21a36.1,36.1,0,0,1-1,9.82,19.84,19.84,0,0,1-6,9.68,1.39,1.39,0,0,1-.78.43.75.75,0,0,1-.56-.33c-.59-.7-1.52-1.74-2.77-3.13-.73-.61-1.8-1.55-3.22-2.84a.82.82,0,0,1-.28-.51.68.68,0,0,1,.28-.48,26.55,26.55,0,0,0,2.38-2.26,8.4,8.4,0,0,0,1.53-3,32.63,32.63,0,0,0,.71-8.1,170.27,170.27,0,0,0-.92-20.23,2.63,2.63,0,0,1,0-.38c0-.31.27-.46.82-.46s1.34,0,2.39.08,1.86.07,2.4.07,1.26,0,2.26-.07,1.76-.08,2.26-.08.74.22.74.66c0,2.34,0,5.85,0,10.55S54.33,165.85,54.33,168.21Z"/><path class="cls-1" d="M97.26,181.36q0,.45-.63.63a28.18,28.18,0,0,1-4.72.21,31,31,0,0,1-4.67-.21,1.38,1.38,0,0,1-1.1-1.14c-.57-2.44-1-3.74-1.34-3.91a55.35,55.35,0,0,0-6.81-.18,20.1,20.1,0,0,0-4.59.23,7,7,0,0,0-1,2.72q-.48,2.1-1.17,2.28a41.1,41.1,0,0,1-5.78.21c-2.59,0-3.89-.25-3.89-.74s1.91-5.85,5.74-16.22q6.23-16.85,6.75-18.51c.21-.65.44-1,.71-1,.46,0,1.17,0,2.12.13s1.68.12,2.15.12,1.13,0,2-.08,1.55-.09,2-.09.62.28.89.83q1.25,2.67,7.26,18.29T97.26,181.36Zm-18-23.13q-.53,1.11-1.8,4.85a26.82,26.82,0,0,0-1.37,4.64c0,.31.51.48,1.52.51.53,0,1.39.05,2.59.05s1.74-.13,1.86-.4a1.15,1.15,0,0,0,0-.36,24.62,24.62,0,0,0-1.17-4.62A34.17,34.17,0,0,0,79.26,158.23Z"/><path class="cls-1" d="M134.23,171a10.79,10.79,0,0,1-2.92,7.75q-3.32,3.53-11.68,3.53l-1.82,0H116c-6.24,0-10-.12-11.14-.38-.49-.1-.74-.36-.74-.79q0-2.72.32-8.22t.32-8.25c0-2-.11-5.66-.31-11.07q-.08-2.09-.28-6.25l0-.36c0-.32.25-.51.8-.58s2.51-.1,5.87-.1c5.4,0,8.56,0,9.47,0q6.25.23,9.22,2,3.93,2.42,3.94,8.15a6.62,6.62,0,0,1-.92,3.17,12.87,12.87,0,0,1-1.72,2.39,6.2,6.2,0,0,1-.94,1c0,.11.22.3.66.55a6.94,6.94,0,0,1,2.79,3.23A9.9,9.9,0,0,1,134.23,171Zm-10.91-14.29a2.84,2.84,0,0,0-2.19-2.9,15.05,15.05,0,0,0-4-.38c-1.83,0-2.74.14-2.74.41s0,.81-.09,1.46-.09,1.14-.09,1.46c0,1.69.14,2.64.43,2.84a10.25,10.25,0,0,0,3.23.23Q123.32,159.85,123.32,156.73Zm.76,14.19a3.08,3.08,0,0,0-1.91-3.1,11.37,11.37,0,0,0-4-.5,11.9,11.9,0,0,0-3.55.24c-.19.16-.28,1.2-.28,3.11s.11,3.1.33,3.31,1.44.32,3.65.32a11.87,11.87,0,0,0,3.86-.43A2.86,2.86,0,0,0,124.08,170.92Z"/><path class="cls-1" d="M175.32,181.36c0,.3-.22.51-.64.63a28.18,28.18,0,0,1-4.72.21,31,31,0,0,1-4.67-.21,1.36,1.36,0,0,1-1.09-1.14c-.58-2.44-1-3.74-1.35-3.91a55.25,55.25,0,0,0-6.8-.18,20.23,20.23,0,0,0-4.6.23,7,7,0,0,0-1,2.72c-.32,1.4-.71,2.16-1.16,2.28a41.4,41.4,0,0,1-5.79.21c-2.59,0-3.89-.25-3.89-.74s1.92-5.85,5.74-16.22q6.23-16.85,6.76-18.51c.2-.65.44-1,.71-1,.45,0,1.16,0,2.12.13s1.67.12,2.14.12,1.13,0,2-.08,1.55-.09,2-.09.62.28.89.83q1.25,2.67,7.26,18.29T175.32,181.36Zm-18-23.13q-.52,1.11-1.8,4.85a26.82,26.82,0,0,0-1.37,4.64c0,.31.51.48,1.52.51.53,0,1.39.05,2.59.05s1.74-.13,1.86-.4a1.15,1.15,0,0,0,0-.36A24.62,24.62,0,0,0,159,162.9,34.17,34.17,0,0,0,157.31,158.23Z"/><path class="cls-1" d="M213.53,180.57a1.35,1.35,0,0,1-.94,1.42,17.66,17.66,0,0,1-4,.26A29,29,0,0,1,204,182a2.82,2.82,0,0,1-.9-.26,2.25,2.25,0,0,1-.55-.73c-1.23-2.27-2.46-4.53-3.68-6.8a48.6,48.6,0,0,0-3.61-6c-1.82.67-2.74,1.14-2.74,1.43,0,1.27.05,3.18.16,5.75s.15,4.49.15,5.77c0,.53-.23.83-.69.89a35.75,35.75,0,0,1-4.77.21A28.29,28.29,0,0,1,183,182c-.49-.1-.74-.36-.74-.78q0-2.75.27-8.28t.27-8.3q0-3-.26-8.85t-.25-8.85c0-.37.18-.56.53-.56.53,0,1.32,0,2.38.08s1.85.07,2.37.07,1.35,0,2.41-.07,1.87-.08,2.39-.08c.29,0,.43.15.43.46,0,1.25-.06,3.14-.19,5.67s-.19,4.42-.19,5.68c0,1.45.4,2.18,1.19,2.18a6.41,6.41,0,0,0,4.7-1.65,13.22,13.22,0,0,0,2.52-4.44q.81-2.47,2.66-7.27a1.12,1.12,0,0,1,1.14-.63c.44,0,1.11,0,2,.08s1.55.07,2,.07,1.14,0,2-.05,1.58-.05,2-.05.61.19.61.58a18.92,18.92,0,0,1-1.06,4.09q-3.15,9.6-7.24,12-.84.48-.84.78s1.56,2.53,4.69,7.62S213.53,179.61,213.53,180.57Z"/><path class="cls-1" d="M261.52,182.42c-1.46,0-3.35,0-5.69-.1l-5.68-.12-7.6-.11c-.76,0-1.85,0-3.27-.1-.49-.08-.74-.34-.74-.78q0-2.78.09-8.29t.09-8.29q0-3-.18-8.83t-.18-8.82c0-.37.26-.56.77-.56s1.26,0,2.27.08,1.75.07,2.25.07,1.38,0,2.48-.09,1.93-.08,2.49-.08c.26,0,.37.16.36.48l0,.33q-.3,4.77-.68,14.34l0,6.71c0,2.16,0,3.75,0,4.74,0,.21,0,.41,0,.61s.14.33.38.38h.66q2.28,0,6.84-.24t6.84-.24c.46,0,.69.2.69.59a37.88,37.88,0,0,1-.64,7.49c-.08.44-.26.7-.53.78A4.74,4.74,0,0,1,261.52,182.42Z"/><path class="cls-1" d="M304.48,181.36q0,.45-.63.63a28.18,28.18,0,0,1-4.72.21,31.14,31.14,0,0,1-4.68-.21,1.37,1.37,0,0,1-1.09-1.14c-.57-2.44-1-3.74-1.34-3.91a55.48,55.48,0,0,0-6.81-.18,20,20,0,0,0-4.59.23,7,7,0,0,0-1,2.72q-.48,2.1-1.17,2.28a41.19,41.19,0,0,1-5.79.21c-2.59,0-3.88-.25-3.88-.74s1.91-5.85,5.74-16.22q6.21-16.85,6.75-18.51c.2-.65.44-1,.71-1,.46,0,1.17,0,2.12.13s1.67.12,2.15.12,1.13,0,2-.08,1.55-.09,2-.09.62.28.89.83q1.24,2.67,7.26,18.29T304.48,181.36Zm-18-23.13c-.35.74-1,2.36-1.8,4.85a25.84,25.84,0,0,0-1.37,4.64c0,.31.5.48,1.52.51.52,0,1.39.05,2.59.05s1.73-.13,1.85-.4a.92.92,0,0,0,.05-.36,25.09,25.09,0,0,0-1.16-4.62A35.67,35.67,0,0,0,286.48,158.23Z"/><path class="cls-1" d="M345.51,181.21c0,.35-.07.57-.22.66a2.09,2.09,0,0,1-.72.12c-1,.1-2.48.16-4.36.16a37,37,0,0,1-4.69-.16c-.46-.1-.7-.33-.7-.68q0-2,.2-6c.12-2.69.19-4.7.19-6,0-.66-.19-1-.56-1.15a48.87,48.87,0,0,0-6.15-.2,49.61,49.61,0,0,0-6.19.2c-.38.09-.56.47-.56,1.15,0,1.32,0,3.29.13,5.93s.12,4.6.12,5.92a.79.79,0,0,1-.68.89,40.13,40.13,0,0,1-4.78.16,36.3,36.3,0,0,1-4.36-.16c-.49-.08-.74-.34-.74-.78q0-2.75.27-8.28t.26-8.3q0-3-.25-8.85t-.25-8.85c0-.37.17-.56.53-.56.52,0,1.31,0,2.37.08s1.85.07,2.38.07,1.35,0,2.45-.07,1.9-.08,2.45-.08c.28,0,.43.15.43.46,0,1.27-.09,3.17-.28,5.7s-.28,4.43-.28,5.7c0,.59.16.94.48,1a50.36,50.36,0,0,0,6.5.2,50.93,50.93,0,0,0,6.3-.2c.41-.1.61-.45.61-1,0-1.22-.06-3.06-.18-5.53s-.18-4.31-.18-5.54c0-.53.21-.79.64-.79s1.24,0,2.25.08,1.76.07,2.27.07,1.24,0,2.24-.07,1.77-.08,2.28-.08.73.2.73.61c0,2-.08,4.88-.24,8.81s-.24,6.87-.24,8.84.09,4.61.27,8.3S345.51,179.38,345.51,181.21Z"/><path class="cls-1" d="M2.43,226.33H0v-13H2.43Z"/><path class="cls-1" d="M17.82,213.31v13H16.58a1.14,1.14,0,0,1-.48-.1,1.1,1.1,0,0,1-.38-.32l-6.79-8.67c0,.39.05.76.05,1.09v8H6.85v-13H8.12l.26,0a.42.42,0,0,1,.2,0,.88.88,0,0,1,.17.12,2,2,0,0,1,.18.2l6.82,8.71c0-.21,0-.42,0-.62a5.62,5.62,0,0,1,0-.57v-7.91Z"/><path class="cls-1" d="M33.2,213.31v13H32a1.14,1.14,0,0,1-.48-.1,1.1,1.1,0,0,1-.38-.32l-6.79-8.67c0,.39.05.76.05,1.09v8H22.23v-13H23.5l.26,0a.39.39,0,0,1,.2,0,.88.88,0,0,1,.17.12,2,2,0,0,1,.18.2l6.82,8.71c0-.21,0-.42,0-.62a5.62,5.62,0,0,1,0-.57v-7.91Z"/><path class="cls-1" d="M50,219.82a7.38,7.38,0,0,1-.47,2.65,6.23,6.23,0,0,1-1.34,2.11A6,6,0,0,1,46.13,226a7.51,7.51,0,0,1-5.39,0,6.13,6.13,0,0,1-2.08-1.39,6.26,6.26,0,0,1-1.35-2.11,7.71,7.71,0,0,1,0-5.3,6.26,6.26,0,0,1,1.35-2.11,6,6,0,0,1,2.08-1.39,6.89,6.89,0,0,1,2.69-.5,7.1,7.1,0,0,1,1.87.23,6.47,6.47,0,0,1,1.6.65,5.81,5.81,0,0,1,1.31,1,6.15,6.15,0,0,1,1,1.34,6.56,6.56,0,0,1,.62,1.6A7.69,7.69,0,0,1,50,219.82Zm-2.47,0a6,6,0,0,0-.29-1.92,4.19,4.19,0,0,0-.82-1.45,3.52,3.52,0,0,0-1.29-.91,4.9,4.9,0,0,0-3.43,0,3.64,3.64,0,0,0-1.3.91,4.19,4.19,0,0,0-.82,1.45,6.5,6.5,0,0,0,0,3.84,4.05,4.05,0,0,0,.82,1.44,3.61,3.61,0,0,0,1.3.9,4.76,4.76,0,0,0,3.43,0,3.49,3.49,0,0,0,1.29-.9,4.05,4.05,0,0,0,.82-1.44A6,6,0,0,0,47.55,219.82Z"/><path class="cls-1" d="M64.39,213.31l-5.25,13H57l-5.25-13h1.94a.76.76,0,0,1,.51.16,1,1,0,0,1,.3.39l3.07,7.94c.1.26.2.54.29.85s.18.63.27,1c.07-.34.15-.66.23-1a7.7,7.7,0,0,1,.28-.85l3-7.94a.89.89,0,0,1,.28-.38.83.83,0,0,1,.52-.17Z"/><path class="cls-1" d="M77.37,226.33H75.5a.82.82,0,0,1-.51-.16,1.14,1.14,0,0,1-.3-.39l-1-2.66H68.33l-1,2.66a1,1,0,0,1-.28.37.77.77,0,0,1-.52.18H64.67l5.12-13h2.47Zm-4.27-4.92-1.59-4.33c-.07-.19-.16-.42-.24-.68s-.17-.55-.25-.86c-.08.31-.16.6-.24.86s-.17.5-.25.7L69,221.41Z"/><path class="cls-1" d="M88.06,215.3H84.13v11H81.71v-11H77.79v-2H88.06Z"/><path class="cls-1" d="M93.71,226.33H91.28v-13h2.43Z"/><path class="cls-1" d="M110.54,219.82a7.17,7.17,0,0,1-.48,2.65,6.21,6.21,0,0,1-1.33,2.11,6.13,6.13,0,0,1-2.08,1.39,7.51,7.51,0,0,1-5.39,0,6.17,6.17,0,0,1-2.09-1.39,6.39,6.39,0,0,1-1.34-2.11,7.56,7.56,0,0,1,0-5.3,6.39,6.39,0,0,1,1.34-2.11,6,6,0,0,1,2.09-1.39,6.86,6.86,0,0,1,2.69-.5,7,7,0,0,1,1.86.23,6.32,6.32,0,0,1,1.6.65,5.39,5.39,0,0,1,1.31,1,6.2,6.2,0,0,1,1,1.34,7,7,0,0,1,.62,1.6A7.69,7.69,0,0,1,110.54,219.82Zm-2.48,0a5.74,5.74,0,0,0-.29-1.92,4,4,0,0,0-.82-1.45,3.52,3.52,0,0,0-1.29-.91,4.42,4.42,0,0,0-1.71-.31,4.47,4.47,0,0,0-1.72.31,3.6,3.6,0,0,0-1.29.91,4.2,4.2,0,0,0-.83,1.45,6.72,6.72,0,0,0,0,3.84,4.07,4.07,0,0,0,.83,1.44,3.58,3.58,0,0,0,1.29.9,4.29,4.29,0,0,0,1.72.32,4.24,4.24,0,0,0,1.71-.32,3.49,3.49,0,0,0,1.29-.9,3.91,3.91,0,0,0,.82-1.44A5.78,5.78,0,0,0,108.06,219.82Z"/><path class="cls-1" d="M125.15,213.31v13h-1.24a1.14,1.14,0,0,1-.48-.1,1.08,1.08,0,0,1-.37-.32l-6.8-8.67a10.65,10.65,0,0,1,0,1.09v8h-2.13v-13h1.27l.27,0a.38.38,0,0,1,.19,0,.66.66,0,0,1,.17.12,2,2,0,0,1,.18.2l6.82,8.71c0-.21,0-.42,0-.62s0-.39,0-.57v-7.91Z"/><path class="cls-1" d="M128.89,225.1a1.39,1.39,0,0,1,.1-.53,1.28,1.28,0,0,1,.28-.43,1.35,1.35,0,0,1,.44-.29,1.36,1.36,0,0,1,1.07,0,1.3,1.3,0,0,1,.43.29,1.33,1.33,0,0,1,.3.43,1.39,1.39,0,0,1,.1.53,1.4,1.4,0,0,1-.1.54,1.45,1.45,0,0,1-.3.43,1.28,1.28,0,0,1-.43.28,1.32,1.32,0,0,1-.53.1,1.4,1.4,0,0,1-1-.38,1.36,1.36,0,0,1-.38-1Z"/><path class="cls-1" d="M148.17,215.68a.8.8,0,0,1-.23.27.54.54,0,0,1-.31.09.77.77,0,0,1-.4-.14l-.53-.31a4.44,4.44,0,0,0-.72-.31,3,3,0,0,0-1-.14,3,3,0,0,0-.89.12,1.73,1.73,0,0,0-.63.34,1.23,1.23,0,0,0-.38.52,1.59,1.59,0,0,0-.13.66,1.15,1.15,0,0,0,.26.76,1.92,1.92,0,0,0,.68.52,5.33,5.33,0,0,0,1,.39l1.11.37a9.41,9.41,0,0,1,1.1.45,4,4,0,0,1,1,.64,2.93,2.93,0,0,1,.68,1,3.37,3.37,0,0,1,.25,1.38,4.48,4.48,0,0,1-.3,1.65,3.76,3.76,0,0,1-.88,1.34,4.21,4.21,0,0,1-1.42.9,5.22,5.22,0,0,1-1.92.33,6.23,6.23,0,0,1-1.22-.12,6.48,6.48,0,0,1-1.16-.35,6.84,6.84,0,0,1-1-.54,5,5,0,0,1-.86-.7l.71-1.16a.83.83,0,0,1,.24-.21.53.53,0,0,1,.3-.09.85.85,0,0,1,.49.19l.62.41a5.48,5.48,0,0,0,.84.41,3.33,3.33,0,0,0,1.16.18,2.36,2.36,0,0,0,1.6-.49,1.77,1.77,0,0,0,.57-1.41,1.34,1.34,0,0,0-.26-.84,2.2,2.2,0,0,0-.68-.54,4.68,4.68,0,0,0-1-.37l-1.1-.34a9.27,9.27,0,0,1-1.1-.43,3.57,3.57,0,0,1-1-.66,3,3,0,0,1-.68-1,3.84,3.84,0,0,1-.26-1.5,3.52,3.52,0,0,1,.29-1.38,3.47,3.47,0,0,1,.82-1.2,4,4,0,0,1,1.33-.84,4.89,4.89,0,0,1,1.82-.31,6,6,0,0,1,2.12.36,4.72,4.72,0,0,1,1.66,1Z"/><path class="cls-1" d="M155.05,226.33h-2.43v-13h2.43Z"/><path class="cls-1" d="M173.58,213.31v13h-2.13v-8.41c0-.34,0-.7.05-1.09l-3.93,7.39a.92.92,0,0,1-.86.53h-.34a.91.91,0,0,1-.85-.53l-4-7.42c0,.2,0,.4,0,.59a5,5,0,0,1,0,.53v8.41h-2.13v-13h2.11a.8.8,0,0,1,.21.05.45.45,0,0,1,.17.11,1.39,1.39,0,0,1,.15.22l3.89,7.23c.1.19.2.39.29.59s.17.41.25.63c.09-.22.17-.44.26-.64s.19-.41.29-.6l3.85-7.21a.71.71,0,0,1,.15-.22.45.45,0,0,1,.17-.11.79.79,0,0,1,.22-.05h2.1Z"/><path class="cls-1" d="M182.22,213.31a7.26,7.26,0,0,1,2.26.31,4.41,4.41,0,0,1,1.58.85,3.47,3.47,0,0,1,.92,1.32,4.55,4.55,0,0,1,.3,1.67,4.59,4.59,0,0,1-.32,1.73,3.58,3.58,0,0,1-.94,1.36,4.39,4.39,0,0,1-1.58.88,7,7,0,0,1-2.22.31h-1.81v4.59H178v-13Zm0,6.55a3.64,3.64,0,0,0,1.16-.17,2.19,2.19,0,0,0,.83-.48,2.12,2.12,0,0,0,.49-.75,3.13,3.13,0,0,0,.16-1,2.76,2.76,0,0,0-.16-.94,1.74,1.74,0,0,0-.49-.72,2.25,2.25,0,0,0-.82-.46,4,4,0,0,0-1.17-.16h-1.81v4.68Z"/><path class="cls-1" d="M198.27,224.33v2h-7.62v-13h2.42v11Z"/><path class="cls-1" d="M203.94,226.33h-2.43v-13h2.43Z"/><path class="cls-1" d="M217.29,223.26a.47.47,0,0,1,.35.15l1,1a5.32,5.32,0,0,1-1.95,1.5,6.7,6.7,0,0,1-2.78.52,6.55,6.55,0,0,1-2.6-.49,5.79,5.79,0,0,1-2-1.38,6.09,6.09,0,0,1-1.25-2.11,7.91,7.91,0,0,1-.44-2.67,7.52,7.52,0,0,1,.47-2.69,6.14,6.14,0,0,1,1.32-2.1,5.87,5.87,0,0,1,2-1.37,6.63,6.63,0,0,1,2.61-.49,6.26,6.26,0,0,1,2.52.47,6,6,0,0,1,1.88,1.22l-.81,1.13a.66.66,0,0,1-.19.18.48.48,0,0,1-.31.09.63.63,0,0,1-.28-.08,2.9,2.9,0,0,1-.31-.19l-.4-.25a3.61,3.61,0,0,0-.52-.25,4.9,4.9,0,0,0-.69-.18,4.07,4.07,0,0,0-.9-.08,4,4,0,0,0-1.6.31,3.6,3.6,0,0,0-1.25.9,4.36,4.36,0,0,0-.81,1.44,6.1,6.1,0,0,0-.28,1.94,5.62,5.62,0,0,0,.31,2,4.09,4.09,0,0,0,.84,1.44,3.6,3.6,0,0,0,1.25.9,4,4,0,0,0,1.55.31,6,6,0,0,0,.89-.06,3.34,3.34,0,0,0,.74-.17,3.73,3.73,0,0,0,.64-.3,3.91,3.91,0,0,0,.6-.45.59.59,0,0,1,.19-.13A.35.35,0,0,1,217.29,223.26Z"/><path class="cls-1" d="M224.21,226.33h-2.43v-13h2.43Z"/><path class="cls-1" d="M237.71,215.3h-3.92v11h-2.42v-11h-3.92v-2h10.26Z"/><path class="cls-1" d="M243.37,215.24v3.61h4.55v1.86h-4.55v3.68h5.77v1.94h-8.2v-13h8.2v1.93Zm5.59-5.66L246,212.15a.82.82,0,0,1-.34.2,2.3,2.3,0,0,1-.42,0h-1.61l1.88-2.44a1,1,0,0,1,.18-.21.56.56,0,0,1,.2-.11.86.86,0,0,1,.24,0H249Z"/><path class="cls-1" d="M252.12,225.1a1.4,1.4,0,0,1,.11-.53,1.28,1.28,0,0,1,.28-.43,1.3,1.3,0,0,1,.43-.29,1.37,1.37,0,0,1,1.51.29,1.3,1.3,0,0,1,.29.43,1.36,1.36,0,0,1,0,1.07,1.42,1.42,0,0,1-.29.43,1.45,1.45,0,0,1-1.51.28,1.28,1.28,0,0,1-.43-.28,1.39,1.39,0,0,1-.28-.43A1.41,1.41,0,0,1,252.12,225.1Z"/><path class="cls-1" d="M273.41,223.26a.49.49,0,0,1,.35.15l.95,1a5.16,5.16,0,0,1-1.95,1.5,6.65,6.65,0,0,1-2.77.52,6.57,6.57,0,0,1-2.61-.49,5.65,5.65,0,0,1-2-1.38,6,6,0,0,1-1.26-2.11,7.91,7.91,0,0,1-.44-2.67,7.52,7.52,0,0,1,.47-2.69,6.3,6.3,0,0,1,1.32-2.1,6.07,6.07,0,0,1,2-1.37,6.7,6.7,0,0,1,2.61-.49,6.31,6.31,0,0,1,2.53.47,6,6,0,0,1,1.87,1.22l-.81,1.13a.77.77,0,0,1-.18.18.5.5,0,0,1-.31.09.6.6,0,0,1-.28-.08l-.32-.19-.39-.25a4.21,4.21,0,0,0-.52-.25,4.9,4.9,0,0,0-.69-.18,4.16,4.16,0,0,0-.91-.08,4,4,0,0,0-1.6.31,3.57,3.57,0,0,0-1.24.9,4,4,0,0,0-.81,1.44,6.09,6.09,0,0,0-.29,1.94,5.62,5.62,0,0,0,.31,2,4.41,4.41,0,0,0,.84,1.44,3.7,3.7,0,0,0,1.25.9,4,4,0,0,0,1.55.31,6.17,6.17,0,0,0,.9-.06,3.25,3.25,0,0,0,.73-.17,3.41,3.41,0,0,0,.64-.3,3.91,3.91,0,0,0,.6-.45.59.59,0,0,1,.19-.13A.41.41,0,0,1,273.41,223.26Z"/><path class="cls-1" d="M290,219.82a7.38,7.38,0,0,1-.47,2.65,6.23,6.23,0,0,1-1.34,2.11,6,6,0,0,1-2.08,1.39,7.51,7.51,0,0,1-5.39,0,6.13,6.13,0,0,1-2.08-1.39,6.26,6.26,0,0,1-1.35-2.11,7.71,7.71,0,0,1,0-5.3,6.26,6.26,0,0,1,1.35-2.11,6,6,0,0,1,2.08-1.39,6.89,6.89,0,0,1,2.69-.5,7.1,7.1,0,0,1,1.87.23,6.47,6.47,0,0,1,1.6.65,5.59,5.59,0,0,1,1.31,1,6.15,6.15,0,0,1,1,1.34,6.56,6.56,0,0,1,.62,1.6A7.69,7.69,0,0,1,290,219.82Zm-2.47,0a6,6,0,0,0-.29-1.92,4.19,4.19,0,0,0-.82-1.45,3.52,3.52,0,0,0-1.29-.91,4.9,4.9,0,0,0-3.43,0,3.64,3.64,0,0,0-1.3.91,4.19,4.19,0,0,0-.82,1.45,6.5,6.5,0,0,0,0,3.84,4.05,4.05,0,0,0,.82,1.44,3.61,3.61,0,0,0,1.3.9,4.76,4.76,0,0,0,3.43,0,3.49,3.49,0,0,0,1.29-.9,4.05,4.05,0,0,0,.82-1.44A6,6,0,0,0,287.55,219.82Z"/><path class="cls-1" d="M304.64,213.31v13H303.4a1.15,1.15,0,0,1-.49-.1,1.18,1.18,0,0,1-.37-.32l-6.79-8.67c0,.39.05.76.05,1.09v8h-2.13v-13h1.27l.26,0a.42.42,0,0,1,.2,0,.88.88,0,0,1,.17.12,2,2,0,0,1,.18.2l6.82,8.71c0-.21,0-.42-.05-.62s0-.39,0-.57v-7.91Z"/><path class="cls-1" d="M311.48,215.24v3.85h4.88V221h-4.88v5.3h-2.43v-13h8.21v1.93Z"/><path class="cls-1" d="M323.18,226.33h-2.43v-13h2.43Z"/><path class="cls-1" d="M338.75,226.33h-1.87a.85.85,0,0,1-.52-.16,1,1,0,0,1-.29-.39l-1-2.66H329.7l-1,2.66a.87.87,0,0,1-.28.37.76.76,0,0,1-.51.18h-1.89l5.12-13h2.47Zm-4.28-4.92-1.58-4.33c-.08-.19-.16-.42-.24-.68s-.17-.55-.26-.86c-.07.31-.16.6-.24.86s-.16.5-.24.7l-1.58,4.31Z"/><path class="cls-1" d="M352.58,213.31v13h-1.24a1.14,1.14,0,0,1-.48-.1,1.1,1.1,0,0,1-.38-.32l-6.79-8.67c0,.39.05.76.05,1.09v8h-2.13v-13h1.27l.26,0a.42.42,0,0,1,.2,0,.88.88,0,0,1,.17.12,2,2,0,0,1,.18.2l6.82,8.71c0-.21,0-.42-.05-.62s0-.39,0-.57v-7.91Z"/><path class="cls-1" d="M365.93,223.26a.49.49,0,0,1,.35.15l1,1a5.32,5.32,0,0,1-2,1.5,6.65,6.65,0,0,1-2.77.52,6.57,6.57,0,0,1-2.61-.49,5.65,5.65,0,0,1-2-1.38,6,6,0,0,1-1.26-2.11,7.91,7.91,0,0,1-.44-2.67,7.52,7.52,0,0,1,.47-2.69A6.14,6.14,0,0,1,358,215a6,6,0,0,1,2-1.37,6.7,6.7,0,0,1,2.61-.49,6.23,6.23,0,0,1,2.52.47,6,6,0,0,1,1.88,1.22l-.81,1.13a.77.77,0,0,1-.18.18.5.5,0,0,1-.31.09.6.6,0,0,1-.28-.08l-.32-.19-.39-.25a3.76,3.76,0,0,0-.53-.25,4.42,4.42,0,0,0-.68-.18,4.22,4.22,0,0,0-.91-.08,4,4,0,0,0-1.6.31,3.57,3.57,0,0,0-1.24.9,4,4,0,0,0-.81,1.44,5.82,5.82,0,0,0-.29,1.94,5.62,5.62,0,0,0,.31,2,4.41,4.41,0,0,0,.84,1.44,3.6,3.6,0,0,0,1.25.9,4,4,0,0,0,1.55.31,6.17,6.17,0,0,0,.9-.06,3.25,3.25,0,0,0,.73-.17,3.41,3.41,0,0,0,.64-.3,3.91,3.91,0,0,0,.6-.45.59.59,0,0,1,.19-.13A.41.41,0,0,1,365.93,223.26Z"/><path class="cls-1" d="M372.84,215.24v3.61h4.55v1.86h-4.55v3.68h5.78v1.94h-8.21v-13h8.21v1.93Z"/><path class="cls-1" d="M381.6,225.1a1.39,1.39,0,0,1,.1-.53,1.28,1.28,0,0,1,.28-.43,1.35,1.35,0,0,1,.44-.29,1.36,1.36,0,0,1,1.07,0,1.3,1.3,0,0,1,.43.29,1.17,1.17,0,0,1,.29.43,1.23,1.23,0,0,1,.11.53,1.24,1.24,0,0,1-.11.54,1.26,1.26,0,0,1-.29.43,1.28,1.28,0,0,1-.43.28,1.32,1.32,0,0,1-.53.1,1.4,1.4,0,0,1-1-.38,1.36,1.36,0,0,1-.38-1Z"/><path class="cls-2" d="M231.31,58.61l-17,21.27-22.68-20.8L177,70.43,213.82,103s15.6-15.6,21.74-29.31A77.3,77.3,0,0,0,231.31,58.61Z"/><path class="cls-2" d="M229,53.41s-5.68-15.12-21.75-36.87l-10.39-5.67S211.46,30.25,218.07,44L205.31,54.83l6.62,18S223.75,62.86,229,53.41Z"/><path class="cls-2" d="M160.88,31.67,145.29,82.24,195.86,121l13.71-12.76s-20.8-20.33-38.76-33.56L178.37,44Z"/><path class="cls-3" d="M193,9.45s-21.74-8-45.84-9.45l-4.73,9s28.2,1.73,45.22,6.78c0,0,9.14,13.54,13.23,22.21L214.31,42S204.49,23.63,193,9.45Z"/><path class="cls-3" d="M187.12,18.91l-1.66,12.4s-26.47-3.9-30.25-3.66l-16.54,50L119.45,64.12S134.18,26.71,140.32,13C140.32,13,158.52,13,187.12,18.91Z"/></g></g></svg>