<svg xmlns="http://www.w3.org/2000/svg" viewBox="0 0 75.25 75.25"><defs><style>.cls-1{fill:#3f3d56;}.cls-2{fill:#f8f8f8;}</style></defs><title>avatarJabakAsset 4</title><g id="Layer_2" data-name="Layer 2"><g id="Layer_1-2" data-name="Layer 1"><circle class="cls-1" cx="37.63" cy="37.63" r="37.63"/><path class="cls-2" d="M53,38.26l-5.06,6.32L41.17,38.4l-4.36,3.37,11,9.71s4.64-4.65,6.47-8.72A22.82,22.82,0,0,0,53,38.26Z"/><path class="cls-2" d="M52.28,36.71a50.9,50.9,0,0,0-6.47-11l-3.09-1.69a76.52,76.52,0,0,1,6.33,9.85l-3.8,3.23,2,5.35A26,26,0,0,0,52.28,36.71Z"/><path class="cls-2" d="M32,30.24,27.39,45.29l15,11.53L46.52,53A133.65,133.65,0,0,0,35,43l2.25-9.14Z"/><path class="cls-2" d="M41.59,23.63A53.55,53.55,0,0,0,28,20.82l-1.4,2.67s8.39.52,13.45,2a66.81,66.81,0,0,1,3.94,6.61l4,1.2A72.38,72.38,0,0,0,41.59,23.63Z"/><path class="cls-2" d="M39.84,26.44l-.5,3.69S31.47,29,30.34,29L25.42,43.93l-5.72-4s4.38-11.14,6.21-15.21A76.62,76.62,0,0,1,39.84,26.44Z"/></g></g></svg>