<svg xmlns="http://www.w3.org/2000/svg" viewBox="0 0 78.25 78.25"><defs><style>.cls-1{fill:#3f3d56;stroke:#6415ff;stroke-miterlimit:10;stroke-width:3px;}.cls-2{fill:#f8f8f8;}</style></defs><title>avatarJabakV2Asset 5</title><g id="Layer_2" data-name="Layer 2"><g id="Layer_1-2" data-name="Layer 1"><circle class="cls-1" cx="39.13" cy="39.13" r="37.63"/><path class="cls-2" d="M54.48,39.76l-5.06,6.32L42.67,39.9l-4.36,3.37,11,9.71s4.64-4.65,6.47-8.72A22.82,22.82,0,0,0,54.48,39.76Z"/><path class="cls-2" d="M53.78,38.21a50.9,50.9,0,0,0-6.47-11l-3.09-1.69a76.52,76.52,0,0,1,6.33,9.85l-3.8,3.23,2,5.35A26,26,0,0,0,53.78,38.21Z"/><path class="cls-2" d="M33.53,31.74,28.89,46.79l15,11.53L48,54.52a133.65,133.65,0,0,0-11.54-10l2.25-9.14Z"/><path class="cls-2" d="M43.09,25.13a53.55,53.55,0,0,0-13.64-2.81L28.05,25s8.39.52,13.45,2a66.81,66.81,0,0,1,3.94,6.61l4,1.2A72.38,72.38,0,0,0,43.09,25.13Z"/><path class="cls-2" d="M41.34,27.94l-.5,3.69s-7.87-1.16-9-1.09L26.92,45.43l-5.72-4s4.38-11.14,6.21-15.21A76.62,76.62,0,0,1,41.34,27.94Z"/></g></g></svg>