<svg xmlns="http://www.w3.org/2000/svg" viewBox="0 0 489.12 418.55"><defs><style>.cls-1{fill:#3f3d56;}.cls-2{fill:#6c63ff;}.cls-3,.cls-8{fill:#fff;}.cls-3{stroke:#fff;stroke-miterlimit:10;}.cls-4{fill:#e6e6e6;}.cls-5{fill:#ffb8b8;}.cls-6{fill:#2f2e41;}.cls-7{fill:#d0cde1;}</style></defs><title>defautImgAsset 5</title><g id="Layer_2" data-name="Layer 2"><g id="Layer_1-2" data-name="Layer 1"><rect class="cls-1" x="156.39" y="101.83" width="1" height="53.38"/><rect class="cls-1" x="156.39" y="171.1" width="1" height="46.97"/><rect class="cls-1" x="154.89" y="225.55" width="77.32" height="1"/><rect class="cls-1" x="121.97" y="239.02" width="1" height="42.4"/><rect class="cls-1" x="130.95" y="288.9" width="117.23" height="1"/><rect class="cls-1" x="344.95" y="67.91" width="1" height="50.38"/><rect class="cls-1" x="264.12" y="126.28" width="73.35" height="1"/><rect class="cls-1" x="255.66" y="134.26" width="1" height="67.35"/><path class="cls-1" d="M156.89,171.67a8.48,8.48,0,1,1,8.48-8.48A8.47,8.47,0,0,1,156.89,171.67Zm0-16a7.49,7.49,0,1,0,7.48,7.48A7.48,7.48,0,0,0,156.89,155.71Z"/><path class="cls-1" d="M123,297.88a8.48,8.48,0,1,1,8.48-8.48h0A8.48,8.48,0,0,1,123,297.88Zm0-16a7.49,7.49,0,1,0,7.49,7.48h0A7.49,7.49,0,0,0,123,281.92Z"/><circle class="cls-2" cx="157.39" cy="226.05" r="7.98"/><rect class="cls-1" x="363.41" y="162.69" width="82.81" height="1"/><rect class="cls-1" x="354.93" y="171.1" width="1" height="46.97"/><rect class="cls-1" x="280.6" y="225.55" width="66.35" height="1"/><rect class="cls-1" x="397.33" y="230.04" width="68.84" height="1"/><rect class="cls-1" x="389.35" y="239.02" width="1" height="42.4"/><rect class="cls-1" x="264.14" y="288.9" width="117.23" height="1"/><rect class="cls-1" x="255.66" y="250.49" width="1" height="30.93"/><circle class="cls-2" cx="355.43" cy="163.19" r="7.98"/><path class="cls-1" d="M345.45,134.76a8.48,8.48,0,1,1,8.48-8.48A8.48,8.48,0,0,1,345.45,134.76Zm0-16a7.49,7.49,0,1,0,7.49,7.49,7.48,7.48,0,0,0-7.49-7.49Z"/><path class="cls-1" d="M256.16,134.76a8.48,8.48,0,1,1,8.48-8.48A8.48,8.48,0,0,1,256.16,134.76Zm0-16a7.49,7.49,0,1,0,7.48,7.49,7.48,7.48,0,0,0-7.48-7.49Z"/><path class="cls-1" d="M389.35,239.52a8.48,8.48,0,1,1,8.48-8.48h0A8.49,8.49,0,0,1,389.35,239.52Zm0-16a7.49,7.49,0,1,0,7.48,7.49h0A7.5,7.5,0,0,0,389.35,223.55Z"/><circle class="cls-2" cx="389.35" cy="289.4" r="7.98"/><path class="cls-1" d="M256.16,297.88a8.48,8.48,0,1,1,8.48-8.48h0A8.49,8.49,0,0,1,256.16,297.88Zm0-16a7.49,7.49,0,1,0,7.48,7.48h0A7.48,7.48,0,0,0,256.16,281.92Z"/><path class="cls-1" d="M354.93,234.53a8.48,8.48,0,1,1,8.48-8.48h0A8.49,8.49,0,0,1,354.93,234.53Zm0-16a7.48,7.48,0,1,0,7.48,7.48A7.48,7.48,0,0,0,354.93,218.57Z"/><path class="cls-1" d="M123,214.08a10,10,0,1,0,10,10A10,10,0,0,0,123,214.08Zm0,3a3,3,0,1,1-3,3A3,3,0,0,1,123,217.07Zm0,14.41a7.25,7.25,0,0,1-6-3.2c0-2,4-3.09,6-3.09s5.94,1.1,6,3.09A7.31,7.31,0,0,1,123,231.48Z"/><path class="cls-1" d="M157.39,77.89a10,10,0,1,0,10,10A10,10,0,0,0,157.39,77.89Zm0,3a3,3,0,1,1-3,3A3,3,0,0,1,157.39,80.88Zm0,14.41a7.27,7.27,0,0,1-6-3.19c0-2,4-3.1,6-3.1s5.93,1.1,6,3.1A7.28,7.28,0,0,1,157.39,95.29Z"/><path class="cls-1" d="M345.45,43.47a10,10,0,1,0,10,10A10,10,0,0,0,345.45,43.47Zm0,3a3,3,0,1,1-3,3A3,3,0,0,1,345.45,46.46Zm0,14.41a7.26,7.26,0,0,1-6-3.19c0-2,4-3.1,6-3.1s5.94,1.1,6,3.1A7.3,7.3,0,0,1,345.45,60.87Z"/><path class="cls-1" d="M460.19,152.72a10,10,0,1,0,10,10A10,10,0,0,0,460.19,152.72Zm0,3a3,3,0,1,1-3,3A3,3,0,0,1,460.19,155.71Zm0,14.41a7.28,7.28,0,0,1-6-3.2c.05-2,4-3.09,6-3.09s5.94,1.1,6,3.09A7.28,7.28,0,0,1,460.19,170.12Z"/><path class="cls-1" d="M479.15,220.06a10,10,0,1,0,10,10A10,10,0,0,0,479.15,220.06Zm0,3a3,3,0,1,1-3,3A3,3,0,0,1,479.15,223.06Zm0,14.4a7.26,7.26,0,0,1-6-3.19c0-2,4-3.09,6-3.09s5.93,1.09,6,3.09A7.24,7.24,0,0,1,479.15,237.46Z"/><path class="cls-2" d="M261.42,207.7A18.7,18.7,0,1,0,275,230.37a18.71,18.71,0,0,0-13.62-22.67Z"/><path class="cls-3" d="M257.37,215.73a10.75,10.75,0,1,0,10.75,10.75A10.75,10.75,0,0,0,257.37,215.73Zm0,3.22a3.23,3.23,0,1,1-3.22,3.23A3.23,3.23,0,0,1,257.37,219Zm0,15.53a7.84,7.84,0,0,1-6.45-3.44c.05-2.15,4.3-3.34,6.45-3.34s6.4,1.19,6.45,3.34A7.83,7.83,0,0,1,257.37,234.48Z"/><path class="cls-4" d="M75.83,409.27C74.41,422.18-.11,421.1,0,409.27,1.42,396.37,75.94,397.45,75.83,409.27Z"/><polygon class="cls-5" points="51.76 376.78 54.78 383.32 60.32 382.82 63.84 371.24 58.3 368.22 51.76 376.78"/><polygon class="cls-5" points="32.75 391.85 32.63 396.42 41.19 396.92 41.19 391.38 32.75 391.85"/><polygon class="cls-6" points="35.65 308.81 37.66 349.09 32.63 392.89 47.73 394.9 57.3 339.52 60.32 301.76 35.65 308.81"/><path class="cls-6" d="M12,294.21s-6,39.78,6.55,52.87,29.7,36.24,29.7,36.24l12.09-15.1L29.61,335.5l6-22.16,24.67-11.58-4-27.69L20,273.57Z"/><circle class="cls-5" cx="41.69" cy="191" r="11.08"/><path class="cls-5" d="M32.12,193.52s-.5,15.61-3,17.62,9.06,10.57,9.06,10.57l7.56-12.08V198.55Z"/><polygon class="cls-7" points="37.16 214.66 31.05 205.43 27.59 210.13 22.56 224.23 26.59 279.11 50.25 279.61 53.27 216.68 45.72 207.62 37.16 214.66"/><path class="cls-6" d="M62.83,218.19l4-.51s1,.51,1.51,4,6.55,34.74,6.55,34.74l-8.06,38.26L57.8,282.63l5.54-21.14L57.8,240.34Z"/><polygon class="cls-6" points="11.48 217.68 8.46 217.68 0.91 258.46 7.96 290.18 15.01 278.6 12.99 266.02 14 254.94 17.52 248.4 11.48 217.68"/><path class="cls-6" d="M56.29,381.31s-3-1-3,1,2,8.05,2,8.05S52.26,409,56.79,408s8.06-9.56,8.56-12.08,3-15.61,3-15.61,4-9.56,1.51-10.07-9.56-2.51-9.56-2.51S64.34,380.3,56.29,381.31Z"/><path class="cls-6" d="M41.69,396.92s-8.06-5-9.57-1a42.68,42.68,0,0,0-2,9.06s-2,6.55,6,5.54,7.05-1,7.55-4S41.69,396.92,41.69,396.92Z"/><path class="cls-6" d="M35.14,191l2-.5s1.51-8.56,5-7.55,12.59,2,12.59-2-8.56-7.55-13.59-7.05-13.6,2-13.09,9.57a50.63,50.63,0,0,0,3.75,14.9l.26-4.48Z"/><polygon class="cls-7" points="45.72 220.71 37.16 214.66 45.72 207.62 48.69 211.18 45.72 220.71"/><polygon class="cls-7" points="29.61 220.2 37.16 214.66 31.12 205.6 27.59 210.13 29.61 220.2"/><path class="cls-6" d="M66.36,217.68l-16.11-6.54-3.78-2.77-11.33,50.1-7.55-22.66,2.27-28.95L9,217.68,16,251.92,17,265l-3,10.57s-10.57,7.56-7,15.61,7.55,8.56,7.55,8.56,17.12-16.11,18.13-20.14,2.51-11.08,2.51-11.08,8.56,32.23,18.63,31.72,10.07-11.07,10.07-11.07L61.32,278.1l-4-11.58,2-19.13Z"/><path class="cls-8" d="M206.45,0a10,10,0,1,0,10,10A10,10,0,0,0,206.45,0Zm0,3a3,3,0,1,1-3,3A3,3,0,0,1,206.45,3Zm0,14.41a7.24,7.24,0,0,1-6-3.19c0-2,4-3.1,6-3.1s5.94,1.1,6,3.1A7.3,7.3,0,0,1,206.45,17.4Z"/></g></g></svg>