<svg xmlns="http://www.w3.org/2000/svg" viewBox="0 0 198.46 53.49"><defs><style>.cls-1{fill:#fff;}.cls-2{fill:#f8f8f8;}.cls-3{fill:#5f29e2;}</style></defs><title>LogoV2Asset 4</title><g id="Layer_2" data-name="Layer 2"><g id="Layer_1-2" data-name="Layer 1"><g id="LogoV2"><path class="cls-1" d="M6.5,16.45A15.72,15.72,0,0,1,6,20.79a8.88,8.88,0,0,1-2.67,4.28.64.64,0,0,1-.35.19.34.34,0,0,1-.25-.15L1.55,23.73c-.32-.27-.8-.69-1.43-1.26A.37.37,0,0,1,0,22.25.29.29,0,0,1,.12,22a11.81,11.81,0,0,0,1.06-1,3.78,3.78,0,0,0,.67-1.33,14.22,14.22,0,0,0,.32-3.58,75,75,0,0,0-.41-8.94c0-.08,0-.13,0-.17s.12-.2.36-.2l1.06,0,1.06,0,1,0,1,0c.22,0,.32.09.32.29,0,1,0,2.59,0,4.66S6.5,15.41,6.5,16.45Z"/><path class="cls-1" d="M25.48,22.26c0,.14-.09.23-.28.28a12.92,12.92,0,0,1-2.09.09,14,14,0,0,1-2.06-.09.61.61,0,0,1-.49-.5A4.25,4.25,0,0,0,20,20.31a25.14,25.14,0,0,0-3-.08,8.7,8.7,0,0,0-2,.1,3.07,3.07,0,0,0-.43,1.2c-.14.62-.31,1-.51,1a18.92,18.92,0,0,1-2.56.09c-1.15,0-1.72-.11-1.72-.32s.85-2.59,2.54-7.18c1.83-5,2.82-7.68,3-8.18.09-.28.2-.43.32-.43s.51,0,.93.06.74.06.95.06l.89,0c.4,0,.69,0,.89,0s.27.12.39.37C20,7.71,21,10.41,22.81,15S25.48,22.06,25.48,22.26ZM17.52,12c-.16.33-.42,1-.8,2.14a11.84,11.84,0,0,0-.6,2.05c0,.14.22.21.67.23l1.15,0c.49,0,.76-.06.82-.18a.63.63,0,0,0,0-.16,10.8,10.8,0,0,0-.52-2A14.29,14.29,0,0,0,17.52,12Z"/><path class="cls-1" d="M41.82,17.69a4.79,4.79,0,0,1-1.29,3.43q-1.47,1.56-5.16,1.56H33.76a38.18,38.18,0,0,1-4.92-.17c-.22-.05-.33-.16-.33-.35,0-.8,0-2,.14-3.64s.14-2.84.14-3.65,0-2.49-.13-4.89c0-.61-.07-1.53-.13-2.76V7.05c0-.14.11-.23.36-.26s1.1,0,2.59,0c2.39,0,3.79,0,4.19,0a8.8,8.8,0,0,1,4.08.9,3.88,3.88,0,0,1,1.74,3.6,3,3,0,0,1-.41,1.41,5.77,5.77,0,0,1-.76,1.05,2.83,2.83,0,0,1-.42.43c0,.05.1.13.29.24a3,3,0,0,1,1.24,1.43A4.35,4.35,0,0,1,41.82,17.69ZM37,11.37a1.26,1.26,0,0,0-1-1.28,6.75,6.75,0,0,0-1.77-.16c-.81,0-1.21.06-1.21.18s0,.35,0,.64a6.45,6.45,0,0,0,0,.65c0,.74.06,1.16.19,1.25a4.51,4.51,0,0,0,1.42.1C36.19,12.75,37,12.29,37,11.37Zm.33,6.28a1.35,1.35,0,0,0-.84-1.37,4.88,4.88,0,0,0-1.75-.23,5.18,5.18,0,0,0-1.57.11,3.63,3.63,0,0,0-.12,1.38A3.5,3.5,0,0,0,33.19,19a4.51,4.51,0,0,0,1.62.14,5.16,5.16,0,0,0,1.7-.19A1.26,1.26,0,0,0,37.33,17.65Z"/><path class="cls-1" d="M60,22.26c0,.14-.09.23-.28.28a12.75,12.75,0,0,1-2.08.09,14.26,14.26,0,0,1-2.07-.09.61.61,0,0,1-.48-.5c-.26-1.08-.45-1.66-.6-1.73a25,25,0,0,0-3-.08,8.83,8.83,0,0,0-2,.1,3.13,3.13,0,0,0-.42,1.2c-.15.62-.32,1-.52,1a18.81,18.81,0,0,1-2.56.09c-1.14,0-1.72-.11-1.72-.32s.85-2.59,2.54-7.18c1.83-5,2.83-7.68,3-8.18.09-.28.19-.43.31-.43s.52,0,.94.06.74.06.95.06l.89,0c.39,0,.69,0,.88,0s.27.12.39.37c.37.78,1.44,3.48,3.21,8.08S60,22.06,60,22.26ZM52,12a22.25,22.25,0,0,0-.8,2.14,12.4,12.4,0,0,0-.61,2.05c0,.14.23.21.68.23l1.14,0c.5,0,.77-.06.82-.18a.37.37,0,0,0,0-.16,11.28,11.28,0,0,0-.51-2A17.43,17.43,0,0,0,52,12Z"/><path class="cls-1" d="M76.88,21.91a.6.6,0,0,1-.42.63,7.56,7.56,0,0,1-1.77.11,12.41,12.41,0,0,1-2-.11,1.11,1.11,0,0,1-.4-.12A1,1,0,0,1,72,22.1c-.55-1-1.09-2-1.63-3a22.81,22.81,0,0,0-1.59-2.68c-.81.3-1.21.51-1.21.63q0,.84.06,2.55c0,1.13.07,2,.07,2.55a.34.34,0,0,1-.3.39,16.41,16.41,0,0,1-2.11.09,12.76,12.76,0,0,1-1.93-.09c-.22,0-.33-.16-.33-.35q0-1.2.12-3.66c.08-1.63.12-2.85.12-3.67s0-2.17-.12-3.91-.11-3-.11-3.91a.22.22,0,0,1,.24-.25l1,0,1,0,1.06,0,1.06,0c.12,0,.19.07.19.21,0,.55,0,1.39-.09,2.5s-.08,2-.08,2.51.18,1,.53,1a2.8,2.8,0,0,0,2.07-.73,5.82,5.82,0,0,0,1.12-2c.23-.72.63-1.79,1.17-3.21A.51.51,0,0,1,73,6.79l.88,0,.88,0,.91,0c.4,0,.69,0,.89,0s.27.08.27.25a8.71,8.71,0,0,1-.47,1.81q-1.4,4.24-3.2,5.3c-.25.14-.37.26-.37.35s.69,1.11,2.07,3.37S76.88,21.49,76.88,21.91Z"/><path class="cls-1" d="M98.09,22.73c-.64,0-1.48,0-2.51,0l-2.52-.06-3.35,0c-.34,0-.82,0-1.45-.05-.22,0-.33-.15-.33-.35,0-.81,0-2,0-3.66s0-2.85,0-3.67,0-2.16-.08-3.9-.07-3-.07-3.9q0-.24.33-.24l1,0,1,0c.25,0,.61,0,1.1,0l1.1,0c.11,0,.17.07.16.21v.14q-.14,2.12-.31,6.35v3c0,1,0,1.66,0,2.1l0,.27c0,.09.06.14.16.17h.3c.67,0,1.68,0,3-.11s2.35-.11,3-.11c.2,0,.3.09.3.26a16.76,16.76,0,0,1-.28,3.31c0,.2-.12.31-.24.35A2,2,0,0,1,98.09,22.73Z"/><path class="cls-1" d="M117.08,22.26c0,.14-.09.23-.28.28a12.75,12.75,0,0,1-2.08.09,14.26,14.26,0,0,1-2.07-.09.61.61,0,0,1-.48-.5c-.26-1.08-.45-1.66-.6-1.73a25,25,0,0,0-3-.08,8.83,8.83,0,0,0-2,.1,3.13,3.13,0,0,0-.42,1.2c-.15.62-.32,1-.52,1a18.81,18.81,0,0,1-2.56.09c-1.14,0-1.72-.11-1.72-.32s.85-2.59,2.54-7.18c1.83-5,2.83-7.68,3-8.18.09-.28.19-.43.31-.43s.52,0,.94.06.74.06,1,.06l.89,0c.39,0,.69,0,.88,0s.27.12.39.37c.37.78,1.44,3.48,3.21,8.08S117.08,22.06,117.08,22.26Zm-8-10.22a22.25,22.25,0,0,0-.8,2.14,12.4,12.4,0,0,0-.61,2.05c0,.14.23.21.68.23l1.14,0c.5,0,.77-.06.82-.18a.37.37,0,0,0,0-.16,11.28,11.28,0,0,0-.51-2A17.43,17.43,0,0,0,109.13,12Z"/><path class="cls-1" d="M135.22,22.19c0,.16,0,.26-.1.3a.86.86,0,0,1-.31.05,19.23,19.23,0,0,1-1.93.07,15.07,15.07,0,0,1-2.07-.07c-.21,0-.31-.14-.31-.3,0-.59,0-1.48.08-2.67s.09-2.07.09-2.66c0-.29-.09-.46-.25-.51a20.82,20.82,0,0,0-2.72-.09,21.47,21.47,0,0,0-2.74.09q-.24.06-.24.51c0,.58,0,1.45,0,2.62s.06,2,.06,2.62a.35.35,0,0,1-.3.39,16.52,16.52,0,0,1-2.11.07,14.88,14.88,0,0,1-1.93-.07c-.22,0-.33-.15-.33-.35q0-1.2.12-3.66c.08-1.63.12-2.85.12-3.67s0-2.17-.12-3.91-.11-3-.11-3.91a.22.22,0,0,1,.24-.25l1,0,1.05,0,1.08,0,1.08,0c.13,0,.19.07.19.21q0,.84-.12,2.52T124.62,12c0,.26.07.41.21.46a21.44,21.44,0,0,0,2.87.09,22,22,0,0,0,2.79-.09c.18-.05.27-.2.27-.46,0-.54,0-1.36-.08-2.45s-.08-1.9-.08-2.45c0-.23.09-.35.28-.35l1,0,1,0,1,0,1,0c.21,0,.32.09.32.27,0,.86,0,2.16-.11,3.9s-.1,3-.1,3.9,0,2,.12,3.67S135.22,21.39,135.22,22.19Z"/><path class="cls-2" d="M2.85,38.6H2V32.89h.85Z"/><path class="cls-2" d="M9.6,32.89V38.6H9.17a.38.38,0,0,1-.16,0,.47.47,0,0,1-.13-.12L5.65,34.28c0,.07,0,.14,0,.21a1.28,1.28,0,0,1,0,.19V38.6H4.92V32.89h.44a.37.37,0,0,1,.17,0,.24.24,0,0,1,.12.11l3.24,4.18a1.8,1.8,0,0,1,0-.22c0-.08,0-.15,0-.21V32.89Z"/><path class="cls-2" d="M16.36,32.89V38.6h-.43a.38.38,0,0,1-.16,0,.47.47,0,0,1-.13-.12l-3.23-4.17c0,.07,0,.14,0,.21a1.28,1.28,0,0,1,0,.19V38.6h-.75V32.89h.44a.37.37,0,0,1,.17,0,.24.24,0,0,1,.12.11l3.24,4.18a1.8,1.8,0,0,1,0-.22c0-.08,0-.15,0-.21V32.89Z"/><path class="cls-2" d="M23.77,35.75a3.16,3.16,0,0,1-.21,1.17,2.6,2.6,0,0,1-1.47,1.53,3.31,3.31,0,0,1-2.32,0,2.6,2.6,0,0,1-1.47-1.53,3.16,3.16,0,0,1-.21-1.17,3.22,3.22,0,0,1,.21-1.18,2.72,2.72,0,0,1,.58-.92,2.77,2.77,0,0,1,.89-.61,3.31,3.31,0,0,1,2.32,0,2.66,2.66,0,0,1,.89.61,2.57,2.57,0,0,1,.58.92A3.22,3.22,0,0,1,23.77,35.75Zm-.87,0a2.91,2.91,0,0,0-.14-.92,1.82,1.82,0,0,0-.4-.69,1.72,1.72,0,0,0-.62-.43,2.26,2.26,0,0,0-1.62,0,1.86,1.86,0,0,0-.63.43,1.94,1.94,0,0,0-.39.69,2.65,2.65,0,0,0-.14.92,2.6,2.6,0,0,0,.14.91,1.94,1.94,0,0,0,.39.69,1.73,1.73,0,0,0,.63.43,2.26,2.26,0,0,0,1.62,0,1.61,1.61,0,0,0,.62-.43,1.82,1.82,0,0,0,.4-.69A2.85,2.85,0,0,0,22.9,35.75Z"/><path class="cls-2" d="M30,32.89,27.72,38.6H27l-2.33-5.71h.68a.24.24,0,0,1,.18.06.31.31,0,0,1,.11.14L27.14,37c0,.1.07.2.11.32a3.57,3.57,0,0,1,.1.35,3.58,3.58,0,0,1,.09-.35,2.42,2.42,0,0,1,.1-.32l1.54-3.88a.33.33,0,0,1,.1-.14.28.28,0,0,1,.18-.06Z"/><path class="cls-2" d="M35.7,38.6H35a.35.35,0,0,1-.18-.05.31.31,0,0,1-.1-.15l-.51-1.32H31.73l-.5,1.32a.3.3,0,0,1-.11.14.28.28,0,0,1-.18.06h-.65l2.27-5.71h.86ZM34,36.48l-.85-2.22a4.9,4.9,0,0,1-.18-.57c0,.11-.06.22-.09.31s-.06.19-.09.27L32,36.48Z"/><path class="cls-2" d="M40.41,33.6H38.6v5h-.85v-5H35.93v-.71h4.48Z"/><path class="cls-2" d="M42.75,38.6H41.9V32.89h.85Z"/><path class="cls-2" d="M50.15,35.75a3.16,3.16,0,0,1-.2,1.17,2.76,2.76,0,0,1-.58.93,2.68,2.68,0,0,1-.9.6,3,3,0,0,1-1.15.21,3.11,3.11,0,0,1-1.16-.21,2.54,2.54,0,0,1-.89-.6,2.62,2.62,0,0,1-.58-.93,3.16,3.16,0,0,1-.21-1.17,3.22,3.22,0,0,1,.21-1.18A2.68,2.68,0,0,1,46.16,33a3.11,3.11,0,0,1,1.16-.21,3,3,0,0,1,1.15.21A2.65,2.65,0,0,1,50,34.57,3.21,3.21,0,0,1,50.15,35.75Zm-.86,0a2.91,2.91,0,0,0-.14-.92,2.12,2.12,0,0,0-.4-.69,1.82,1.82,0,0,0-.62-.43,2.09,2.09,0,0,0-.81-.15,2.18,2.18,0,0,0-.82.15,1.82,1.82,0,0,0-.62.43,2.12,2.12,0,0,0-.4.69,2.91,2.91,0,0,0-.14.92,2.85,2.85,0,0,0,.14.91,2.12,2.12,0,0,0,.4.69,1.69,1.69,0,0,0,.62.43,2.18,2.18,0,0,0,.82.15,2.09,2.09,0,0,0,.81-.15,1.69,1.69,0,0,0,.62-.43,2.12,2.12,0,0,0,.4-.69A2.85,2.85,0,0,0,49.29,35.75Z"/><path class="cls-2" d="M56.56,32.89V38.6h-.43a.38.38,0,0,1-.16,0,.5.5,0,0,1-.14-.12l-3.22-4.17c0,.07,0,.14,0,.21a1.28,1.28,0,0,1,0,.19V38.6h-.75V32.89h.44a.37.37,0,0,1,.17,0,.24.24,0,0,1,.12.11l3.24,4.18a1.8,1.8,0,0,1,0-.22c0-.08,0-.15,0-.21V32.89Z"/><path class="cls-2" d="M58.36,38.14a.45.45,0,0,1,0-.2.39.39,0,0,1,.11-.17.48.48,0,0,1,.16-.12.71.71,0,0,1,.21,0,.65.65,0,0,1,.2,0,.52.52,0,0,1,.17.12.5.5,0,0,1,.11.17.52.52,0,0,1,0,.4.5.5,0,0,1-.11.17.39.39,0,0,1-.17.11.45.45,0,0,1-.2,0,.49.49,0,0,1-.21,0,.36.36,0,0,1-.16-.11.39.39,0,0,1-.11-.17A.45.45,0,0,1,58.36,38.14Z"/><path class="cls-2" d="M66.82,33.82a.21.21,0,0,1-.08.1.2.2,0,0,1-.11,0,.29.29,0,0,1-.16-.06l-.23-.15-.33-.15a1.56,1.56,0,0,0-.46-.06,1.46,1.46,0,0,0-.44.06,1.4,1.4,0,0,0-.32.18,1,1,0,0,0-.19.27.88.88,0,0,0-.06.33.66.66,0,0,0,.11.38,1,1,0,0,0,.31.26,2.24,2.24,0,0,0,.44.19l.49.16.5.2a1.6,1.6,0,0,1,.43.28,1.27,1.27,0,0,1,.31.41,1.4,1.4,0,0,1,.12.6,1.83,1.83,0,0,1-.13.71,1.72,1.72,0,0,1-.38.58,1.83,1.83,0,0,1-.6.39,2.43,2.43,0,0,1-1.35.08,1.87,1.87,0,0,1-.49-.15,2,2,0,0,1-.43-.23,1.83,1.83,0,0,1-.36-.31l.24-.41.08-.08a.27.27,0,0,1,.12,0,.32.32,0,0,1,.19.09,2.43,2.43,0,0,0,.27.19,2.36,2.36,0,0,0,.39.2,1.71,1.71,0,0,0,.54.08,1.33,1.33,0,0,0,.47-.07.81.81,0,0,0,.35-.2.77.77,0,0,0,.22-.31,1,1,0,0,0,.07-.4.64.64,0,0,0-.11-.41.91.91,0,0,0-.31-.27,2.41,2.41,0,0,0-.43-.18L65,36a5.1,5.1,0,0,1-.5-.19,1.52,1.52,0,0,1-.43-.28,1.25,1.25,0,0,1-.31-.43,1.76,1.76,0,0,1-.11-.65,1.52,1.52,0,0,1,.12-.59,1.46,1.46,0,0,1,.35-.51,1.84,1.84,0,0,1,.56-.35,2,2,0,0,1,.76-.13,2.56,2.56,0,0,1,.89.15,2,2,0,0,1,.7.44Z"/><path class="cls-2" d="M69.72,38.6h-.86V32.89h.86Z"/><path class="cls-2" d="M77.8,32.89V38.6h-.74V34.54a1.41,1.41,0,0,1,0-.2c0-.07,0-.14,0-.21l-1.9,3.49a.34.34,0,0,1-.31.2h-.12a.32.32,0,0,1-.3-.2l-1.94-3.5a3.19,3.19,0,0,1,0,.42V38.6h-.75V32.89h.63l.17,0a.28.28,0,0,1,.12.12l1.91,3.43c0,.06.07.14.11.21l.09.23a4.32,4.32,0,0,1,.19-.45L76.89,33a.26.26,0,0,1,.11-.12l.17,0Z"/><path class="cls-2" d="M81.61,32.89a3.05,3.05,0,0,1,1,.13,1.72,1.72,0,0,1,.67.36,1.41,1.41,0,0,1,.4.56,2.11,2.11,0,0,1,.12.73,2,2,0,0,1-.13.74,1.7,1.7,0,0,1-.41.58,1.94,1.94,0,0,1-.68.38,3.26,3.26,0,0,1-.93.13h-.88v2.1h-.85V32.89Zm0,2.94a1.91,1.91,0,0,0,.57-.08,1.27,1.27,0,0,0,.41-.24,1,1,0,0,0,.25-.37,1.36,1.36,0,0,0,.08-.47,1.09,1.09,0,0,0-.32-.82,1.43,1.43,0,0,0-1-.3h-.88v2.28Z"/><path class="cls-2" d="M88.63,37.89v.71H85.36V32.89h.85v5Z"/><path class="cls-2" d="M91,38.6h-.85V32.89H91Z"/><path class="cls-2" d="M97.05,37.38a.17.17,0,0,1,.12,0l.34.37a2.37,2.37,0,0,1-.86.64,2.93,2.93,0,0,1-1.21.23,2.7,2.7,0,0,1-1.12-.22,2.38,2.38,0,0,1-.86-.6,2.65,2.65,0,0,1-.55-.92,3.44,3.44,0,0,1-.2-1.18,3.18,3.18,0,0,1,.21-1.18,2.74,2.74,0,0,1,.57-.93,2.5,2.5,0,0,1,.89-.6,3,3,0,0,1,1.14-.21,2.67,2.67,0,0,1,1.08.2,2.55,2.55,0,0,1,.82.52l-.28.4s0,0-.06.07a.2.2,0,0,1-.11,0,.34.34,0,0,1-.18-.08l-.27-.17a2,2,0,0,0-.41-.17,2.06,2.06,0,0,0-.6-.07,2,2,0,0,0-.78.15,1.65,1.65,0,0,0-.61.43,1.93,1.93,0,0,0-.4.69,2.87,2.87,0,0,0-.14.92,2.65,2.65,0,0,0,.15.92,2.12,2.12,0,0,0,.4.69,1.83,1.83,0,0,0,.61.43,1.94,1.94,0,0,0,.76.15,2.94,2.94,0,0,0,.44,0,1.9,1.9,0,0,0,.36-.09,1.87,1.87,0,0,0,.32-.15c.09-.07.19-.14.29-.23l.06,0A.12.12,0,0,1,97.05,37.38Z"/><path class="cls-2" d="M99.88,38.6H99V32.89h.85Z"/><path class="cls-2" d="M105.85,33.6H104v5h-.84v-5h-1.83v-.71h4.48Z"/><path class="cls-2" d="M110.89,37.92v.68h-3.54V32.89h3.54v.69H108.2v1.81h2.16v.66H108.2v1.87Zm-.17-6.69-1.3,1.14-.12.07h-.71l.9-1.09.07-.07.07,0,.09,0h1Z"/><path class="cls-2" d="M112.32,38.14a.45.45,0,0,1,0-.2.39.39,0,0,1,.11-.17.48.48,0,0,1,.16-.12.78.78,0,0,1,.21,0,.65.65,0,0,1,.2,0,.52.52,0,0,1,.17.12.39.39,0,0,1,.11.17.43.43,0,0,1,0,.4.48.48,0,0,1-.28.28.45.45,0,0,1-.2,0,.52.52,0,0,1-.21,0,.36.36,0,0,1-.16-.11.39.39,0,0,1-.11-.17A.45.45,0,0,1,112.32,38.14Z"/><path class="cls-2" d="M6,46.93a.17.17,0,0,1,.12,0l.33.37a2.36,2.36,0,0,1-.85.64,2.93,2.93,0,0,1-1.21.23A2.87,2.87,0,0,1,3.26,48a2.3,2.3,0,0,1-.86-.6,2.65,2.65,0,0,1-.55-.92,3.44,3.44,0,0,1-.2-1.18,3.27,3.27,0,0,1,.21-1.19,2.64,2.64,0,0,1,.57-.92,2.5,2.5,0,0,1,.89-.6,3,3,0,0,1,1.14-.21,2.85,2.85,0,0,1,1.08.19,2.89,2.89,0,0,1,.82.53l-.28.4L6,43.57a.16.16,0,0,1-.11,0,.29.29,0,0,1-.17-.08l-.27-.17a2.31,2.31,0,0,0-.41-.17,2.06,2.06,0,0,0-.6-.07,1.94,1.94,0,0,0-.78.15,1.65,1.65,0,0,0-.61.43,1.83,1.83,0,0,0-.4.68,2.71,2.71,0,0,0-.14.93,2.65,2.65,0,0,0,.15.92,2,2,0,0,0,.4.69,1.74,1.74,0,0,0,.61.43,1.91,1.91,0,0,0,.76.15,2.94,2.94,0,0,0,.44,0,1.9,1.9,0,0,0,.36-.09,1.48,1.48,0,0,0,.31-.15A2.09,2.09,0,0,0,5.84,47l.07-.05Z"/><path class="cls-2" d="M13.18,45.3a3.42,3.42,0,0,1-.2,1.17,2.63,2.63,0,0,1-.58.92,2.7,2.7,0,0,1-.9.61,3.28,3.28,0,0,1-2.31,0,2.7,2.7,0,0,1-.9-.61,2.63,2.63,0,0,1-.58-.92,3.55,3.55,0,0,1,0-2.35,2.65,2.65,0,0,1,1.48-1.53,3.28,3.28,0,0,1,2.31,0A2.65,2.65,0,0,1,13,44.12,3.44,3.44,0,0,1,13.18,45.3Zm-.87,0a2.65,2.65,0,0,0-.14-.92,1.94,1.94,0,0,0-.39-.69,1.69,1.69,0,0,0-.62-.43,2.18,2.18,0,0,0-.82-.15,2.09,2.09,0,0,0-.81.15,1.69,1.69,0,0,0-.62.43,1.82,1.82,0,0,0-.4.69,2.91,2.91,0,0,0-.14.92,2.85,2.85,0,0,0,.14.91,1.82,1.82,0,0,0,.4.69,1.69,1.69,0,0,0,.62.43,2.09,2.09,0,0,0,.81.15,2.18,2.18,0,0,0,.82-.15,1.69,1.69,0,0,0,.62-.43,1.94,1.94,0,0,0,.39-.69A2.6,2.6,0,0,0,12.31,45.3Z"/><path class="cls-2" d="M19.59,42.44v5.71h-.43a.35.35,0,0,1-.16,0,.75.75,0,0,1-.14-.12l-3.22-4.17c0,.07,0,.14,0,.21s0,.13,0,.19v3.92h-.75V42.44h.44l.17,0a.66.66,0,0,1,.12.12l3.23,4.18c0-.08,0-.15,0-.22a1.62,1.62,0,0,1,0-.21V42.44Z"/><path class="cls-2" d="M22.52,43.13V45h2.29v.69H22.52v2.42h-.85V42.44h3.54v.69Z"/><path class="cls-2" d="M27.69,48.15h-.85V42.44h.85Z"/><path class="cls-2" d="M34.48,48.15h-.65a.36.36,0,0,1-.19,0,.31.31,0,0,1-.1-.15L33,46.63H30.52L30,48a.33.33,0,0,1-.1.14.31.31,0,0,1-.19.06h-.65l2.28-5.71h.85ZM32.8,46,32,43.81a3.28,3.28,0,0,1-.19-.58c0,.12-.06.23-.09.32s-.06.19-.09.27L30.75,46Z"/><path class="cls-2" d="M40.54,42.44v5.71h-.43a.43.43,0,0,1-.17,0,.71.71,0,0,1-.13-.12l-3.23-4.17c0,.07,0,.14,0,.21v4.11h-.74V42.44h.44l.16,0a.46.46,0,0,1,.13.12l3.23,4.18c0-.08,0-.15,0-.22v-4.1Z"/><path class="cls-2" d="M46.61,46.93a.17.17,0,0,1,.12,0l.34.37a2.49,2.49,0,0,1-.86.64,2.93,2.93,0,0,1-1.21.23A2.87,2.87,0,0,1,43.88,48a2.3,2.3,0,0,1-.86-.6,2.65,2.65,0,0,1-.55-.92,3.44,3.44,0,0,1-.2-1.18,3.27,3.27,0,0,1,.21-1.19,2.64,2.64,0,0,1,.57-.92,2.5,2.5,0,0,1,.89-.6,3,3,0,0,1,1.14-.21,2.85,2.85,0,0,1,1.08.19,2.89,2.89,0,0,1,.82.53l-.28.4a.16.16,0,0,1-.07.07.16.16,0,0,1-.11,0,.32.32,0,0,1-.17-.08l-.27-.17a2.31,2.31,0,0,0-.41-.17,2.06,2.06,0,0,0-.6-.07,1.94,1.94,0,0,0-.78.15,1.65,1.65,0,0,0-.61.43,1.83,1.83,0,0,0-.4.68,3,3,0,0,0-.14.93,2.65,2.65,0,0,0,.15.92,2,2,0,0,0,.4.69,1.74,1.74,0,0,0,.61.43,1.91,1.91,0,0,0,.76.15,2.94,2.94,0,0,0,.44,0,1.9,1.9,0,0,0,.36-.09,1.48,1.48,0,0,0,.31-.15,3,3,0,0,0,.3-.23l.06-.05Z"/><path class="cls-2" d="M52.13,47.46v.69H48.59V42.44h3.54v.69H49.44v1.81h2.17v.66H49.44v1.86Z"/><path class="cls-2" d="M53.56,47.69a.78.78,0,0,1,0-.21.64.64,0,0,1,.11-.16.52.52,0,0,1,.17-.12.65.65,0,0,1,.2,0,.71.71,0,0,1,.21,0,.71.71,0,0,1,.28.28.52.52,0,0,1,0,.21.45.45,0,0,1,0,.2.52.52,0,0,1-.12.17.36.36,0,0,1-.16.11.49.49,0,0,1-.21,0,.45.45,0,0,1-.2,0,.39.39,0,0,1-.17-.11.71.71,0,0,1-.11-.17A.65.65,0,0,1,53.56,47.69Z"/><path class="cls-2" d="M196.58,25.91l-7.52,9.4-10-9.19-6.48,5,16.3,14.42s6.9-6.89,9.61-12.95A34.54,34.54,0,0,0,196.58,25.91Z"/><path class="cls-2" d="M195.54,23.61s-2.51-6.69-9.62-16.3l-4.59-2.5s6.48,8.56,9.4,14.62l-5.64,4.81L188,32.18S193.24,27.79,195.54,23.61Z"/><path class="cls-2" d="M165.45,14l-6.9,22.36,22.36,17.13L187,47.85A197.11,197.11,0,0,0,169.84,33l3.34-13.58Z"/><path class="cls-3" d="M179.66,4.18A79.84,79.84,0,0,0,159.39,0L157.3,4s12.47.77,20,3a98.69,98.69,0,0,1,5.85,9.83l5.93,1.79A107.63,107.63,0,0,0,179.66,4.18Z"/><path class="cls-3" d="M177,8.36l-.73,5.48s-11.7-1.72-13.37-1.62l-7.31,22.12-8.5-6s6.51-16.54,9.23-22.6A113.31,113.31,0,0,1,177,8.36Z"/></g></g></g></svg>