<svg xmlns="http://www.w3.org/2000/svg" viewBox="0 0 68.35 54.26"><defs><style>.cls-1{fill:#f8f8f8;}</style></defs><title>NotFoundAsset 1</title><g id="Layer_2" data-name="Layer 2"><g id="Layer_1-2" data-name="Layer 1"><path class="cls-1" d="M42.93,30.32,36.4,38.48l-8.71-8-5.62,4.35L36.22,47.37s6-6,8.34-11.25A29.61,29.61,0,0,0,42.93,30.32Z"/><path class="cls-1" d="M68.35,16.32S66.18,10.52,60,2.18L56,0s5.62,7.44,8.16,12.7l-4.89,4.17,2.53,6.89S66.36,20,68.35,16.32Z"/><path class="cls-1" d="M15.9,20l-6,19.41,19.4,14.87,5.26-4.89A172,172,0,0,0,19.71,36.49l2.9-11.79Z"/><path class="cls-1" d="M28.23,11.55a69.3,69.3,0,0,0-17.6-3.63L8.82,11.37S19.64,12,26.17,14a85.54,85.54,0,0,1,5.08,8.53l5.15,1.55A92.48,92.48,0,0,0,28.23,11.55Z"/><path class="cls-1" d="M26,15.08l-.64,4.76s-10.15-1.49-11.61-1.4L7.38,37.64,0,32.44S5.65,18.08,8,12.82A98.71,98.71,0,0,1,26,15.08Z"/></g></g></svg>